<?xml version="1.0" encoding="UTF-8" standalone="no"?>
<svg
   xmlns:dc="http://purl.org/dc/elements/1.1/"
   xmlns:cc="http://creativecommons.org/ns#"
   xmlns:rdf="http://www.w3.org/1999/02/22-rdf-syntax-ns#"
   xmlns:svg="http://www.w3.org/2000/svg"
   xmlns="http://www.w3.org/2000/svg"
   xmlns:xlink="http://www.w3.org/1999/xlink"
   xmlns:sodipodi="http://sodipodi.sourceforge.net/DTD/sodipodi-0.dtd"
   xmlns:inkscape="http://www.inkscape.org/namespaces/inkscape"
   height="39.080002"
   width="228.66"
   inkscape:version="1.0beta2 (2b71d25, 2019-12-03)"
   sodipodi:docname="navbar-logo.svg"
   id="svg863"
   version="1.1"
   viewBox="0 0 228.66 39.08">
  <metadata
     id="metadata869">
    <rdf:RDF>
      <cc:Work
         rdf:about="">
        <dc:format>image/svg+xml</dc:format>
        <dc:type
           rdf:resource="http://purl.org/dc/dcmitype/StillImage" />
        <dc:title></dc:title>
      </cc:Work>
    </rdf:RDF>
  </metadata>
  <defs
     id="defs867">
    <filter
       height="2.7843748"
       y="-0.8921874"
       width="1.5175831"
       x="-0.25879154"
       id="filter1276"
       style="color-interpolation-filters:sRGB"
       inkscape:collect="always">
      <feGaussianBlur
         id="feGaussianBlur1278"
         stdDeviation="3.3621873"
         inkscape:collect="always" />
    </filter>
    <filter
       height="1.2062251"
       y="-0.10311253"
       width="1.1164315"
       x="-0.058215747"
       id="filter1280"
       style="color-interpolation-filters:sRGB"
       inkscape:collect="always">
      <feGaussianBlur
         id="feGaussianBlur1282"
         stdDeviation="3.3621873"
         inkscape:collect="always" />
    </filter>
    <filter
       height="1.2534326"
       y="-0.1267163"
       width="1.0518401"
       x="-0.025920049"
       id="filter1284"
       style="color-interpolation-filters:sRGB"
       inkscape:collect="always">
      <feGaussianBlur
         id="feGaussianBlur1286"
         stdDeviation="3.3621873"
         inkscape:collect="always" />
    </filter>
    <filter
       inkscape:collect="always"
       style="color-interpolation-filters:sRGB"
       id="filter1284-3"
       x="-0.025920048"
       width="1.0518401"
       y="-0.1267163"
       height="1.2534326">
      <feGaussianBlur
         inkscape:collect="always"
         stdDeviation="3.3621873"
         id="feGaussianBlur1286-7" />
    </filter>
    <filter
       inkscape:collect="always"
       style="color-interpolation-filters:sRGB"
       id="filter1280-1"
       x="-0.058215749"
       width="1.1164315"
       y="-0.10311253"
       height="1.2062252">
      <feGaussianBlur
         inkscape:collect="always"
         stdDeviation="3.3621873"
         id="feGaussianBlur1282-8" />
    </filter>
    <filter
       inkscape:collect="always"
       style="color-interpolation-filters:sRGB"
       id="filter1276-9"
       x="-0.25879154"
       width="1.5175831"
       y="-0.89218742"
       height="2.7843747">
      <feGaussianBlur
         inkscape:collect="always"
         stdDeviation="3.3621873"
         id="feGaussianBlur1278-3" />
    </filter>
    <clipPath
       id="clipPath1492"
       clipPathUnits="userSpaceOnUse">
      <rect
         y="-1244.8105"
         x="-6374.1289"
         height="189"
         width="192"
         id="rect1494"
         style="opacity:0.315789;vector-effect:none;fill:#6184db;fill-opacity:1;stroke:#686868;stroke-width:3.77953;stroke-linecap:butt;stroke-linejoin:miter;stroke-miterlimit:4;stroke-dasharray:none;stroke-dashoffset:0;stroke-opacity:0.994012;stop-color:#000000;stop-opacity:1" />
    </clipPath>
  </defs>
  <sodipodi:namedview
     showguides="false"
     inkscape:current-layer="svg863"
     inkscape:window-maximized="0"
     inkscape:window-y="0"
     inkscape:window-x="0"
     inkscape:cy="-1230.0666"
     inkscape:cx="-6283.9157"
     inkscape:zoom="1.0487858"
     showgrid="false"
     id="namedview865"
     inkscape:window-height="800"
     inkscape:window-width="1280"
     inkscape:pageshadow="2"
     inkscape:pageopacity="0"
     guidetolerance="10"
     gridtolerance="10"
     objecttolerance="10"
     borderopacity="1"
     inkscape:document-rotation="0"
     bordercolor="#666666"
     pagecolor="#ffffff" />
  <style
     id="style833">.cls-1{fill:#fed136;}</style>
  <path
     inkscape:connector-curvature="0"
     id="path835"
     d="m -311.56769,32.525818 c 0.07,0.4 0.13,0.68 0.16,0.83 a 2.66,2.66 0 0 1 0.05,0.62 4.76,4.76 0 0 1 -0.51,2.18 3,3 0 0 1 -1.4,1.43 7.12,7.12 0 0 0 -1.73,-1.64 10.8,10.8 0 0 0 -2.25,-1.14 14.23,14.23 0 0 0 -2.53,-0.65 16,16 0 0 0 -2.55,-0.21 13,13 0 0 0 -2.32,0.19 9.91,9.91 0 0 0 -1.91,0.53 3.79,3.79 0 0 0 -1.31,0.83 1.61,1.61 0 0 0 -0.48,1.14 2.73,2.73 0 0 0 1,1.57 12.76,12.76 0 0 0 2.09,1.56 c 0.82,0.51 1.74,1 2.74,1.5 1,0.5 2,1 3,1.42 1.2,0.57 2.24,1.09 3.11,1.58 a 9.31,9.31 0 0 1 2.16,1.59 5.83,5.83 0 0 1 1.28,2 7.5,7.5 0 0 1 0.32,2.62 9.43,9.43 0 0 1 -0.6,3.38 7.84,7.84 0 0 1 -1.75,2.74 8.21,8.21 0 0 1 -2.78,1.83 9.85,9.85 0 0 1 -3.65,0.65 17,17 0 0 1 -4.22,-0.6 20,20 0 0 1 -4.3,-1.65 12.61,12.61 0 0 1 -3.33,-2.4 4.09,4.09 0 0 1 -1.37,-2.89 5.48,5.48 0 0 1 0.41,-1.8 7.5,7.5 0 0 1 1.47,-2.31 5.49,5.49 0 0 0 1.12,2.52 10.14,10.14 0 0 0 3.13,2.69 15.79,15.79 0 0 0 4,1.65 16.23,16.23 0 0 0 3.87,0.51 8.83,8.83 0 0 0 3.23,-0.5 5.89,5.89 0 0 0 1.94,-1.18 3.94,3.94 0 0 0 1,-1.4 4,4 0 0 0 0.32,-1.13 2.14,2.14 0 0 0 -0.65,-1.37 7.65,7.65 0 0 0 -1.67,-1.27 c -0.69,-0.41 -1.5,-0.83 -2.42,-1.26 -0.92,-0.43 -1.88,-0.85 -2.87,-1.27 -1.48,-0.66 -2.77,-1.28 -3.84,-1.86 a 14.83,14.83 0 0 1 -2.65,-1.77 5.88,5.88 0 0 1 -1.53,-1.9 5.1,5.1 0 0 1 -0.47,-2.26 6.57,6.57 0 0 1 1.2,-3.75 7.41,7.41 0 0 1 3.51,-2.69 10,10 0 0 1 2.42,-0.71 15.83,15.83 0 0 1 2.53,-0.22 16.76,16.76 0 0 1 4.57,0.64 34.29,34.29 0 0 1 4.46,1.63 z"
     class="cls-1" />
  <path
     inkscape:connector-curvature="0"
     id="path837"
     d="m -308.72769,42.825818 a 2.16,2.16 0 0 1 -0.32,-0.9 5.75,5.75 0 0 1 -0.15,-1.19 11.13,11.13 0 0 0 1.77,0.15 h 1.56 c 0.36,-0.7 0.74,-1.4 1.15,-2.09 0.41,-0.69 0.82,-1.32 1.21,-1.89 a 17.57,17.57 0 0 1 1.09,-1.45 4.35,4.35 0 0 1 0.8,-0.77 4.29,4.29 0 0 1 0.9,0.12 c 0.37,0.09 0.74,0.19 1.12,0.32 0.38,0.13 0.72,0.27 1,0.41 a 1.89,1.89 0 0 1 0.63,0.42 c -0.71,0.9 -1.31,1.72 -1.82,2.48 -0.51,0.76 -1.06,1.64 -1.65,2.62 h 1.44 a 10.58,10.58 0 0 0 1.47,-0.1 1.28,1.28 0 0 1 0.28,0.44 1.5,1.5 0 0 1 0.11,0.55 11.71,11.71 0 0 1 -4.22,0.67 c -0.59,1.14 -1.11,2.27 -1.57,3.39 -0.46,1.12 -0.85,2.21 -1.17,3.25 a 26.36,26.36 0 0 0 -0.74,2.94 13.17,13.17 0 0 0 -0.27,2.49 q 0,1.56 1.17,1.74 a 8.46,8.46 0 0 0 2,-0.53 6.68,6.68 0 0 0 1.7,-1 1.42,1.42 0 0 1 0.24,0.54 3.7,3.7 0 0 1 -0.72,0.73 12.51,12.51 0 0 1 -1.12,0.83 10.47,10.47 0 0 1 -1.17,0.69 3,3 0 0 1 -0.85,0.31 4.85,4.85 0 0 1 -1.77,-0.35 7.38,7.38 0 0 1 -1.61,-0.89 4.93,4.93 0 0 1 -1.18,-1.19 2.19,2.19 0 0 1 -0.46,-1.29 11.94,11.94 0 0 1 0.23,-2.14 c 0.15,-0.87 0.37,-1.8 0.65,-2.82 0.28,-1.02 0.62,-2.08 1,-3.19 0.38,-1.11 0.79,-2.21 1.24,-3.3 z"
     class="cls-1" />
  <path
     inkscape:connector-curvature="0"
     id="path839"
     d="m -286.14769,42.085818 a 3.45,3.45 0 0 1 0.83,0.12 4.92,4.92 0 0 1 0.87,0.32 3.48,3.48 0 0 1 0.65,0.41 q 0.27,0.21 0.27,0.39 c -0.47,1 -0.91,2 -1.31,3 -0.4,1 -0.74,2 -1,2.89 a 24.37,24.37 0 0 0 -0.65,2.58 11.63,11.63 0 0 0 -0.23,2.09 5.4,5.4 0 0 0 0.21,1.64 1.58,1.58 0 0 0 0.71,0.94 3.64,3.64 0 0 1 -1.1,0.46 4.72,4.72 0 0 1 -1.2,0.18 c -1.28,0 -1.91,-0.87 -1.91,-2.62 a 16.45,16.45 0 0 1 1.36,-5.53 21.14,21.14 0 0 1 -1.63,3 22.3,22.3 0 0 1 -1.87,2.52 11.21,11.21 0 0 1 -1.98,1.88 4.79,4.79 0 0 1 -1.79,0.83 2.46,2.46 0 0 1 -2.12,-1.2 5.2,5.2 0 0 1 -0.82,-3 11.6,11.6 0 0 1 0.85,-4.19 18.86,18.86 0 0 1 2.18,-4.09 15.66,15.66 0 0 1 2.88,-3.14 4.81,4.81 0 0 1 3,-1.27 2.89,2.89 0 0 1 0.8,0.43 6.43,6.43 0 0 1 0.85,0.74 5.91,5.91 0 0 1 0.69,0.86 2,2 0 0 1 0.32,0.76 6.31,6.31 0 0 0 -2.91,1.27 14.3,14.3 0 0 0 -2.73,2.81 16.49,16.49 0 0 0 -2,3.51 9.17,9.17 0 0 0 -0.78,3.5 0.8,0.8 0 0 0 0.5,0.85 5,5 0 0 0 2.37,-1.76 33.44,33.44 0 0 0 3.26,-4.76 l 0.79,-1.41 c 0.3,-0.52 0.6,-1.07 0.91,-1.63 l 0.9,-1.72 c 0.33,-0.56 0.57,-1.12 0.83,-1.66 z"
     class="cls-1" />
  <path
     inkscape:connector-curvature="0"
     id="path841"
     d="m -282.56769,55.675818 c 0.11,-0.68 0.32,-1.58 0.62,-2.7 0.3,-1.12 0.64,-2.32 1,-3.58 0.36,-1.26 0.83,-2.53 1.27,-3.81 0.44,-1.28 0.89,-2.42 1.31,-3.43 a 17,17 0 0 1 0.82,-1.72 4.49,4.49 0 0 1 0.78,-1 5.82,5.82 0 0 1 1,0.25 7.17,7.17 0 0 1 1,0.42 10.06,10.06 0 0 1 0.89,0.51 3,3 0 0 1 0.6,0.52 12.47,12.47 0 0 0 -1.68,2.58 26.67,26.67 0 0 0 -1.38,3.64 q 1.9,-1.7 3.38,-3.26 a 26,26 0 0 0 2.74,-3.47 1.24,1.24 0 0 1 0.74,-0.17 2.8,2.8 0 0 1 1,0.16 1.13,1.13 0 0 1 0.64,0.44 9.39,9.39 0 0 0 -0.64,3.36 4.67,4.67 0 0 0 0.46,2.34 2.52,2.52 0 0 1 -0.48,0.81 9.48,9.48 0 0 1 -1,1.13 5.64,5.64 0 0 1 -1.71,-1.34 5.85,5.85 0 0 1 -1.1,-1.89 25,25 0 0 0 -2.83,2.28 11.89,11.89 0 0 0 -2,2.48 15.33,15.33 0 0 0 -1.42,3.13 c -0.38,1.18 -0.76,2.59 -1.11,4.22 a 3.32,3.32 0 0 1 -0.76,-0.23 6.46,6.46 0 0 1 -0.89,-0.48 6.29,6.29 0 0 1 -0.79,-0.6 1.65,1.65 0 0 1 -0.46,-0.59 z"
     class="cls-1" />
  <path
     inkscape:connector-curvature="0"
     id="path843"
     d="m -265.36769,42.825818 a 2.31,2.31 0 0 1 -0.32,-0.9 6.42,6.42 0 0 1 -0.14,-1.19 11.13,11.13 0 0 0 1.77,0.15 h 1.56 c 0.35,-0.7 0.74,-1.4 1.15,-2.09 0.41,-0.69 0.81,-1.32 1.2,-1.89 a 17.48,17.48 0 0 1 1.1,-1.45 4.05,4.05 0 0 1 0.8,-0.77 4.46,4.46 0 0 1 0.9,0.12 c 0.37,0.09 0.74,0.19 1.12,0.32 0.38,0.13 0.72,0.27 1,0.41 a 1.85,1.85 0 0 1 0.64,0.42 c -0.71,0.9 -1.32,1.72 -1.82,2.48 -0.5,0.76 -1.06,1.64 -1.65,2.62 h 1.41 a 10.37,10.37 0 0 0 1.47,-0.1 1.17,1.17 0 0 1 0.29,0.44 1.49,1.49 0 0 1 0.1,0.55 11.62,11.62 0 0 1 -4.21,0.67 c -0.59,1.14 -1.12,2.27 -1.58,3.39 -0.46,1.12 -0.81,2.21 -1.07,3.25 a 28.93,28.93 0 0 0 -0.75,2.94 14,14 0 0 0 -0.26,2.49 q 0,1.56 1.17,1.74 a 8.38,8.38 0 0 0 2,-0.53 6.35,6.35 0 0 0 1.7,-1 1.47,1.47 0 0 1 0.25,0.54 3.53,3.53 0 0 1 -0.73,0.73 12.33,12.33 0 0 1 -1.11,0.83 10.47,10.47 0 0 1 -1.17,0.69 3.1,3.1 0 0 1 -0.85,0.31 4.85,4.85 0 0 1 -1.77,-0.35 7.16,7.16 0 0 1 -1.61,-0.89 4.93,4.93 0 0 1 -1.18,-1.19 2.2,2.2 0 0 1 -0.47,-1.29 13,13 0 0 1 0.23,-2.14 c 0.16,-0.87 0.38,-1.8 0.66,-2.82 0.28,-1.02 0.61,-2.08 1,-3.19 0.39,-1.11 0.79,-2.21 1.24,-3.3 z"
     class="cls-1" />
  <path
     inkscape:connector-curvature="0"
     id="path845"
     d="m -222.03769,36.875818 a 6.68,6.68 0 0 1 -1.2,3.92 9.49,9.49 0 0 1 -3.29,2.85 7.24,7.24 0 0 1 2.14,2.24 5.61,5.61 0 0 1 0.8,2.93 7.17,7.17 0 0 1 -1.15,3.77 12.21,12.21 0 0 1 -3.07,3.29 16.72,16.72 0 0 1 -4.35,2.32 14.54,14.54 0 0 1 -5,0.88 10.74,10.74 0 0 1 -4.84,-1 7.78,7.78 0 0 1 -3.23,-3 q 0.34,-1.06 0.93,-2.64 c 0.39,-1 0.82,-2.16 1.3,-3.32 0.48,-1.16 1,-2.33 1.43,-3.49 0.43,-1.16 0.94,-2.2 1.36,-3.12 0.9,-2 1.7,-3.67 2.41,-5 a 24.86,24.86 0 0 1 2,-3.15 26.71,26.71 0 0 0 -3.54,1.36 9.33,9.33 0 0 0 -2.34,1.47 2.91,2.91 0 0 1 -0.65,-0.63 8.15,8.15 0 0 1 -0.64,-0.94 6.29,6.29 0 0 1 -0.5,-1.05 3.94,3.94 0 0 1 -0.23,-0.95 12,12 0 0 1 2.39,-1.22 23.75,23.75 0 0 1 3.21,-1 33.74,33.74 0 0 1 3.55,-0.68 26.83,26.83 0 0 1 3.49,-0.24 11.36,11.36 0 0 1 6.66,1.7 5.44,5.44 0 0 1 2.36,4.7 z m -13.48,8.48 a 4,4 0 0 1 -1.24,-1 c -0.55,1.2 -1.06,2.38 -1.54,3.54 -0.48,1.16 -0.92,2.23 -1.3,3.22 -0.38,0.99 -0.68,1.86 -0.92,2.59 a 8.69,8.69 0 0 0 -0.39,1.65 3.87,3.87 0 0 0 1.19,0.42 8.25,8.25 0 0 0 1.72,0.15 15.56,15.56 0 0 0 4.6,-0.68 13.63,13.63 0 0 0 3.86,-1.89 9.93,9.93 0 0 0 2.65,-2.64 5.53,5.53 0 0 0 1,-3.11 3.51,3.51 0 0 0 -2,-3.37 16.2,16.2 0 0 1 -6.23,1.14 h -0.76 a 3.79,3.79 0 0 1 -0.64,-0.02 z m 6.87,-12.3 a 14.6,14.6 0 0 0 -1.57,0.09 c -0.56,0.06 -1.14,0.15 -1.75,0.27 a 1.33,1.33 0 0 1 0.23,0.3 c 0,0.1 0.11,0.21 0.16,0.33 a 10.77,10.77 0 0 0 -0.78,1.24 c -0.31,0.55 -0.65,1.18 -1,1.9 -0.35,0.72 -0.77,1.51 -1.19,2.39 -0.42,0.88 -0.83,1.77 -1.25,2.69 a 10.89,10.89 0 0 1 1.47,-0.23 16.47,16.47 0 0 1 1.71,-0.09 c 0.31,0 0.61,0 0.91,0 0.3,0 0.58,0.06 0.86,0.11 a 15.06,15.06 0 0 0 3.07,-0.83 10.86,10.86 0 0 0 2.35,-1.28 5.48,5.48 0 0 0 1.48,-1.59 3.51,3.51 0 0 0 0.53,-1.87 2.87,2.87 0 0 0 -1.34,-2.57 7.22,7.22 0 0 0 -3.89,-0.86 z"
     class="cls-1" />
  <path
     inkscape:connector-curvature="0"
     id="path847"
     d="m -217.11769,57.625818 a 4.51,4.51 0 0 1 -3.22,-1.77 6.31,6.31 0 0 1 -1.2,-4 11,11 0 0 1 0.42,-2.94 14.51,14.51 0 0 1 1.21,-3 16.37,16.37 0 0 1 1.84,-2.71 13.15,13.15 0 0 1 2.3,-2.19 6.21,6.21 0 0 1 3.65,-1.45 6.4,6.4 0 0 1 2.23,2.51 h 0.32 0.31 c 1.26,0 1.88,1.11 1.88,3.33 a 12.13,12.13 0 0 1 -0.73,4.23 12.61,12.61 0 0 1 -2,3.63 12.09,12.09 0 0 1 -3.08,2.75 12.45,12.45 0 0 1 -3.93,1.61 z m 1.81,-11.15 a 15.33,15.33 0 0 0 -1.13,1.77 16.13,16.13 0 0 0 -0.92,1.93 13,13 0 0 0 -0.6,1.87 6.79,6.79 0 0 0 -0.22,1.62 4.65,4.65 0 0 0 0.29,1.62 c 0.18,0.52 0.4,0.82 0.63,0.89 a 7.68,7.68 0 0 0 2.92,-1.33 9.7,9.7 0 0 0 2.31,-2.42 12.49,12.49 0 0 0 1.52,-3.3 13.82,13.82 0 0 0 0.55,-3.93 7.84,7.84 0 0 0 -0.11,-1.45 2.8,2.8 0 0 0 -0.35,-0.92 7.71,7.71 0 0 0 -2.78,1.53 13.82,13.82 0 0 0 -2.11,2.12 z"
     class="cls-1" />
  <path
     inkscape:connector-curvature="0"
     id="path849"
     d="m -201.49769,57.625818 a 4.47,4.47 0 0 1 -3.22,-1.77 6.25,6.25 0 0 1 -1.21,-4 10.62,10.62 0 0 1 0.43,-2.94 13.93,13.93 0 0 1 1.2,-3 16.37,16.37 0 0 1 1.84,-2.71 13.51,13.51 0 0 1 2.3,-2.19 6.23,6.23 0 0 1 3.65,-1.45 6.33,6.33 0 0 1 2.23,2.51 h 0.32 0.32 c 1.25,0 1.87,1.11 1.87,3.33 a 12.36,12.36 0 0 1 -0.72,4.23 12.87,12.87 0 0 1 -2,3.63 12.09,12.09 0 0 1 -3.08,2.75 12.39,12.39 0 0 1 -3.93,1.61 z m 1.85,-11.15 a 15.33,15.33 0 0 0 -1.13,1.77 17.83,17.83 0 0 0 -0.92,1.93 13,13 0 0 0 -0.6,1.87 7.34,7.34 0 0 0 -0.22,1.62 4.65,4.65 0 0 0 0.29,1.62 c 0.19,0.52 0.4,0.82 0.64,0.89 a 7.82,7.82 0 0 0 2.92,-1.33 9.84,9.84 0 0 0 2.3,-2.42 12.18,12.18 0 0 0 1.52,-3.3 13.48,13.48 0 0 0 0.55,-3.93 7.84,7.84 0 0 0 -0.11,-1.45 2.8,2.8 0 0 0 -0.35,-0.92 7.71,7.71 0 0 0 -2.83,1.53 14.28,14.28 0 0 0 -2.06,2.12 z"
     class="cls-1" />
  <path
     inkscape:connector-curvature="0"
     id="path851"
     d="m -188.32769,42.825818 a 2.16,2.16 0 0 1 -0.32,-0.9 5.66,5.66 0 0 1 -0.14,-1.19 10.94,10.94 0 0 0 1.77,0.15 h 1.55 c 0.36,-0.7 0.74,-1.4 1.15,-2.09 0.41,-0.69 0.82,-1.32 1.21,-1.89 a 15.52,15.52 0 0 1 1.1,-1.45 4.07,4.07 0 0 1 0.79,-0.77 4.46,4.46 0 0 1 0.91,0.12 c 0.36,0.09 0.73,0.19 1.11,0.32 0.38,0.13 0.72,0.27 1,0.41 a 1.79,1.79 0 0 1 0.63,0.42 c -0.7,0.9 -1.31,1.72 -1.82,2.48 -0.51,0.76 -1.06,1.64 -1.64,2.62 h 1.43 a 10.58,10.58 0 0 0 1.47,-0.1 1.15,1.15 0 0 1 0.28,0.44 1.5,1.5 0 0 1 0.11,0.55 11.67,11.67 0 0 1 -4.22,0.67 c -0.59,1.14 -1.11,2.27 -1.57,3.39 -0.46,1.12 -0.85,2.21 -1.17,3.25 a 26.36,26.36 0 0 0 -0.74,2.94 13.17,13.17 0 0 0 -0.27,2.49 q 0,1.56 1.17,1.74 a 8.46,8.46 0 0 0 2,-0.53 6.51,6.51 0 0 0 1.7,-1 1.66,1.66 0 0 1 0.25,0.54 4.13,4.13 0 0 1 -0.73,0.73 11.22,11.22 0 0 1 -1.12,0.83 11.36,11.36 0 0 1 -1.16,0.69 3.1,3.1 0 0 1 -0.85,0.31 4.85,4.85 0 0 1 -1.77,-0.35 7.16,7.16 0 0 1 -1.61,-0.89 5,5 0 0 1 -1.19,-1.19 2.19,2.19 0 0 1 -0.46,-1.29 13,13 0 0 1 0.23,-2.14 c 0.15,-0.87 0.37,-1.8 0.65,-2.82 0.28,-1.02 0.62,-2.08 1,-3.19 0.38,-1.11 0.79,-2.21 1.23,-3.3 z"
     class="cls-1" />
  <path
     inkscape:connector-curvature="0"
     id="path853"
     d="m -165.74769,42.245818 a 6.59,6.59 0 0 1 -0.23,1.4 8.34,8.34 0 0 1 -0.47,1.31 4.63,4.63 0 0 1 -0.61,1 0.84,0.84 0 0 1 -0.6,0.39 c -0.26,0 -0.41,-0.2 -0.46,-0.53 a 1.13,1.13 0 0 1 0.09,-0.34 c 0.06,-0.15 0.12,-0.32 0.19,-0.51 0.07,-0.19 0.14,-0.38 0.2,-0.57 a 1.65,1.65 0 0 0 0.09,-0.49 1.51,1.51 0 0 0 -0.23,-0.84 0.73,0.73 0 0 0 -0.62,-0.33 c -0.95,0 -1.67,0.59 -2.16,1.76 a 13.82,13.82 0 0 0 -0.74,5.18 1.57,1.57 0 0 0 0,0.42 h 2.48 a 0.85,0.85 0 0 1 0,0.28 0.59,0.59 0 0 1 -0.14,0.46 l -1.29,0.3 a 5.39,5.39 0 0 0 -0.73,0.23 0.59,0.59 0 0 0 -0.3,0.23 1,1 0 0 0 -0.05,0.33 c 0,0.19 0,0.38 0,0.57 0,0.19 0,0.42 0,0.7 a 6.88,6.88 0 0 1 -1.61,4.76 6.61,6.61 0 0 1 -4.48,2.09 2.94,2.94 0 0 1 -1,-0.28 5.19,5.19 0 0 1 -1,-0.64 4.54,4.54 0 0 1 -0.83,-0.87 3.1,3.1 0 0 1 -0.5,-1 6.11,6.11 0 0 1 0.57,-2.59 7.21,7.21 0 0 1 1.54,-2.17 7.86,7.86 0 0 1 2.3,-1.54 7.11,7.11 0 0 1 2.89,-0.59 8.42,8.42 0 0 0 -0.18,-1.74 c -0.12,-0.57 -0.24,-1.12 -0.37,-1.65 -0.13,-0.53 -0.26,-1.06 -0.37,-1.57 a 6.56,6.56 0 0 1 -0.18,-1.51 4.93,4.93 0 0 1 0.39,-1.9 7,7 0 0 1 1,-1.74 6.42,6.42 0 0 1 1.48,-1.37 5.33,5.33 0 0 1 1.77,-0.78 3.23,3.23 0 0 1 1,0.62 14.82,14.82 0 0 1 1.29,1.15 12.13,12.13 0 0 1 1.13,1.29 3.24,3.24 0 0 1 0.74,1.08 z m -11.68,16.11 a 5.82,5.82 0 0 0 1.61,-1 8,8 0 0 0 2.23,-3.33 5.54,5.54 0 0 0 0.34,-1.88 4,4 0 0 0 -1.56,0.66 9.54,9.54 0 0 0 -2.84,2.89 2.86,2.86 0 0 0 -0.5,1.42 1.5,1.5 0 0 0 0.72,1.24 z"
     class="cls-1" />
  <path
     inkscape:connector-curvature="0"
     id="path855"
     d="m -163.64769,42.825818 a 2.16,2.16 0 0 1 -0.32,-0.9 5.66,5.66 0 0 1 -0.14,-1.19 10.94,10.94 0 0 0 1.77,0.15 h 1.56 c 0.35,-0.7 0.73,-1.4 1.15,-2.09 0.42,-0.69 0.81,-1.32 1.2,-1.89 a 15.52,15.52 0 0 1 1.1,-1.45 4.07,4.07 0 0 1 0.79,-0.77 4.46,4.46 0 0 1 0.91,0.12 c 0.36,0.09 0.73,0.19 1.11,0.32 0.38,0.13 0.72,0.27 1,0.41 a 1.79,1.79 0 0 1 0.63,0.42 c -0.7,0.9 -1.31,1.72 -1.82,2.48 -0.51,0.76 -1.05,1.64 -1.64,2.62 h 1.43 a 10.58,10.58 0 0 0 1.47,-0.1 1.15,1.15 0 0 1 0.28,0.44 1.5,1.5 0 0 1 0.11,0.55 11.66,11.66 0 0 1 -4.21,0.67 c -0.6,1.14 -1.12,2.27 -1.58,3.39 -0.46,1.12 -0.85,2.21 -1.17,3.25 a 26.36,26.36 0 0 0 -0.74,2.94 13.17,13.17 0 0 0 -0.27,2.49 q 0,1.56 1.17,1.74 a 8.46,8.46 0 0 0 2,-0.53 6.51,6.51 0 0 0 1.7,-1 1.66,1.66 0 0 1 0.25,0.54 4.13,4.13 0 0 1 -0.73,0.73 11.22,11.22 0 0 1 -1.12,0.83 11.36,11.36 0 0 1 -1.16,0.69 3.1,3.1 0 0 1 -0.85,0.31 4.85,4.85 0 0 1 -1.77,-0.35 7.16,7.16 0 0 1 -1.61,-0.89 5,5 0 0 1 -1.19,-1.19 2.19,2.19 0 0 1 -0.46,-1.29 13,13 0 0 1 0.23,-2.14 c 0.15,-0.87 0.37,-1.8 0.65,-2.82 0.28,-1.02 0.62,-2.08 1,-3.19 0.38,-1.11 0.79,-2.21 1.23,-3.3 z"
     class="cls-1" />
  <path
     inkscape:connector-curvature="0"
     id="path857"
     d="m -154.09769,55.675818 c 0.12,-0.68 0.32,-1.58 0.62,-2.7 0.3,-1.12 0.64,-2.32 1,-3.58 0.36,-1.26 0.83,-2.53 1.28,-3.81 0.45,-1.28 0.88,-2.42 1.31,-3.43 a 17.28,17.28 0 0 1 0.81,-1.72 5.13,5.13 0 0 1 0.78,-1 6.15,6.15 0 0 1 1,0.25 7.54,7.54 0 0 1 1,0.42 8.8,8.8 0 0 1 0.89,0.51 3,3 0 0 1 0.6,0.52 12.47,12.47 0 0 0 -1.68,2.58 29.42,29.42 0 0 0 -1.38,3.64 c 1.28,-1.13 2.4,-2.22 3.38,-3.26 a 26.08,26.08 0 0 0 2.75,-3.47 1.22,1.22 0 0 1 0.74,-0.17 2.75,2.75 0 0 1 0.95,0.16 1.13,1.13 0 0 1 0.64,0.44 9.61,9.61 0 0 0 -0.64,3.36 4.66,4.66 0 0 0 0.47,2.34 3,3 0 0 1 -0.48,0.81 9.57,9.57 0 0 1 -1,1.13 5.88,5.88 0 0 1 -2.79,-3.25 25.16,25.16 0 0 0 -2.8,2.32 12.57,12.57 0 0 0 -2,2.48 15.32,15.32 0 0 0 -1.43,3.11 c -0.39,1.18 -0.76,2.59 -1.12,4.22 a 3.47,3.47 0 0 1 -0.76,-0.23 7,7 0 0 1 -1.69,-1.06 1.65,1.65 0 0 1 -0.45,-0.61 z"
     class="cls-1" />
  <path
     inkscape:connector-curvature="0"
     id="path859"
     d="m -126.76769,42.085818 a 3.45,3.45 0 0 1 0.83,0.12 4.92,4.92 0 0 1 0.87,0.32 3.48,3.48 0 0 1 0.65,0.41 q 0.27,0.21 0.27,0.39 c -0.47,1 -0.91,2 -1.31,3 -0.4,1 -0.74,2 -1,2.89 a 24.37,24.37 0 0 0 -0.65,2.58 10.79,10.79 0 0 0 -0.23,2.09 5.4,5.4 0 0 0 0.21,1.64 1.58,1.58 0 0 0 0.71,0.94 3.64,3.64 0 0 1 -1.1,0.46 4.72,4.72 0 0 1 -1.2,0.18 c -1.28,0 -1.91,-0.87 -1.91,-2.62 a 16.7,16.7 0 0 1 1.34,-5.52 21.14,21.14 0 0 1 -1.63,3 22.3,22.3 0 0 1 -1.87,2.52 11.21,11.21 0 0 1 -1.96,1.87 4.79,4.79 0 0 1 -1.79,0.83 2.46,2.46 0 0 1 -2.12,-1.2 5.2,5.2 0 0 1 -0.82,-3 11.6,11.6 0 0 1 0.85,-4.19 18.86,18.86 0 0 1 2.18,-4.09 15.37,15.37 0 0 1 2.88,-3.14 4.81,4.81 0 0 1 3,-1.27 2.89,2.89 0 0 1 0.8,0.43 6.43,6.43 0 0 1 0.85,0.74 5.91,5.91 0 0 1 0.69,0.86 2,2 0 0 1 0.32,0.76 6.31,6.31 0 0 0 -2.91,1.27 14.3,14.3 0 0 0 -2.73,2.81 16.49,16.49 0 0 0 -2,3.51 9.17,9.17 0 0 0 -0.78,3.5 0.8,0.8 0 0 0 0.5,0.85 5,5 0 0 0 2.37,-1.76 33.44,33.44 0 0 0 3.26,-4.76 l 0.79,-1.41 c 0.3,-0.52 0.6,-1.07 0.91,-1.63 l 0.9,-1.72 c 0.29,-0.56 0.57,-1.12 0.83,-1.66 z"
     class="cls-1" />
  <path
     inkscape:connector-curvature="0"
     id="path861"
     d="m -124.92769,68.105818 c -0.33,-0.09 -0.52,-0.45 -0.57,-1.06 a 5.94,5.94 0 0 1 -0.19,-1.1 c 0,-0.42 -0.05,-0.91 -0.05,-1.45 a 11.83,11.83 0 0 1 0.24,-2 c 0.17,-0.86 0.4,-1.83 0.7,-2.92 0.3,-1.09 0.65,-2.26 1.08,-3.52 0.43,-1.26 0.89,-2.54 1.41,-3.84 0.64,-1.63 1.19,-3 1.67,-4.23 0.48,-1.23 0.86,-2.23 1.18,-3.1 0.32,-0.87 0.58,-1.59 0.78,-2.16 0.2,-0.57 0.36,-1 0.48,-1.45 a 8.64,8.64 0 0 1 0.42,-1 13.36,13.36 0 0 1 0.66,-1.22 c 0.24,-0.41 0.5,-0.8 0.76,-1.17 a 4.92,4.92 0 0 1 0.71,-0.83 9.44,9.44 0 0 1 2.33,0.64 3,3 0 0 1 1.35,0.88 7.92,7.92 0 0 0 -1.13,1.44 23.25,23.25 0 0 0 -1.24,2.12 25.29,25.29 0 0 0 -1.1,2.36 17.08,17.08 0 0 0 -0.74,2.12 10.32,10.32 0 0 1 0.92,-1.31 c 0.37,-0.47 1,-1.12 1.73,-1.95 a 14.22,14.22 0 0 1 2.46,-2.07 4,4 0 0 1 2,-0.72 3.23,3.23 0 0 1 2.21,0.74 2.39,2.39 0 0 1 0.87,1.91 15.52,15.52 0 0 1 -0.85,5.05 15,15 0 0 1 -2.44,4.51 10.39,10.39 0 0 1 -1.37,1.42 12.57,12.57 0 0 1 -1.7,1.25 9.34,9.34 0 0 1 -1.73,0.87 4.5,4.5 0 0 1 -1.52,0.32 2.24,2.24 0 0 1 -1.12,-0.27 1.36,1.36 0 0 1 -0.65,-0.65 11.69,11.69 0 0 0 2.69,-2.27 20.19,20.19 0 0 0 2.42,-3.34 26.61,26.61 0 0 0 1.95,-4.09 27.19,27.19 0 0 0 1.26,-4.46 16,16 0 0 0 -2.43,1.54 12.33,12.33 0 0 0 -2.17,2.18 c -0.85,1 -1.52,1.87 -2,2.51 -0.48,0.64 -0.9,1.18 -1.22,1.63 a 10.31,10.31 0 0 0 -0.78,1.25 c -0.2,0.39 -0.42,0.87 -0.65,1.44 -0.33,0.75 -0.72,1.75 -1.15,3 -0.43,1.25 -0.89,2.62 -1.35,4.16 -0.46,1.54 -0.92,3.17 -1.38,4.9 -0.46,1.73 -0.9,3.47 -1.33,5.19 a 1,1 0 0 1 -0.67,-0.57 c -0.19,-0.21 -0.33,-0.36 -0.41,-0.46 a 0.81,0.81 0 0 0 -0.34,-0.22 z"
     class="cls-1" />
  <image
     sodipodi:absref="/Users/Estevam/Downloads/prodados_logo-removebg-preview.png"
     xlink:href="../../../../../../Downloads/prodados_logo-removebg-preview.png"
     y="49.539692"
     x="-29.017706"
     width="347"
     height="81"
     preserveAspectRatio="none"
     id="image881" />
  <path
     inkscape:connector-curvature="0"
     id="path887"
     d="M -28.598553,112.6068 H 220.44718 c 10.72446,-28.59855 10.72446,-29.194353 10.72446,-29.194353 l 11.32026,38.131403"
     style="fill:none;stroke:#000000;stroke-width:1px;stroke-linecap:butt;stroke-linejoin:miter;stroke-opacity:1" />
  <path
     inkscape:connector-curvature="0"
     id="path889"
     d="m 242.4919,121.54385 22.04472,-38.131403 19.0657,24.427933 26.21534,-48.260061"
     style="fill:none;stroke:#000000;stroke-width:1px;stroke-linecap:butt;stroke-linejoin:miter;stroke-opacity:1" />
  <path
     transform="matrix(-0.393774,-0.44986985,0.50573474,-0.44267289,410.35538,222.84746)"
     inkscape:transform-center-y="0.10798813"
     inkscape:transform-center-x="0.90876953"
     d="m 319.35052,58.388714 -4.69443,-5.03511 -4.69443,-5.03511 6.70775,-1.547942 6.70774,-1.547942 -2.01331,6.583052 z"
     inkscape:randomized="0"
     inkscape:rounded="0"
     inkscape:flatsided="false"
     sodipodi:arg2="2.391195"
     sodipodi:arg1="1.3439975"
     sodipodi:r2="3.974503"
     sodipodi:r1="7.9490061"
     sodipodi:cy="50.643272"
     sodipodi:cx="317.56311"
     sodipodi:sides="3"
     id="path891"
     style="opacity:0.563969;fill:#2d2b0d;fill-opacity:0.707547;stroke-width:1.33333;stop-color:#000000"
     sodipodi:type="star" />
  <ellipse
     ry="7.2735176"
     rx="7.1738806"
     cy="81.204346"
     cx="230.75983"
     id="path893"
     style="opacity:0.563969;fill:none;fill-opacity:0.707547;stroke:#000000;stroke-width:1.33333;stroke-opacity:1;stop-color:#000000" />
  <ellipse
     style="opacity:0.563969;fill:none;fill-opacity:0.707547;stroke:#000000;stroke-width:1.33333;stroke-opacity:1;stop-color:#000000"
     id="path893-9"
     cx="283.36826"
     cy="106.41256"
     rx="7.1738806"
     ry="7.2735176" />
  <ellipse
     ry="2.5905681"
     rx="2.6902051"
     cy="106.41257"
     cx="283.4679"
     id="path910"
     style="opacity:0.563969;fill:#2d2b0d;fill-opacity:0.707547;stroke:none;stroke-width:1.96261;stroke-opacity:1;stop-color:#000000" />
  <text
     transform="scale(1.0162145,0.98404422)"
     id="text914"
     y="108.62746"
     x="47.758255"
     style="font-style:normal;font-weight:normal;font-size:42.29px;line-height:1.25;font-family:sans-serif;fill:#0077c2;fill-opacity:0.992157;stroke:none;stroke-width:1.05724"
     xml:space="preserve"><tspan
       style="font-style:normal;font-variant:normal;font-weight:normal;font-stretch:normal;font-family:'Andale Mono';-inkscape-font-specification:'Andale Mono';fill:#0077c2;fill-opacity:0.992157;stroke-width:1.05724"
       y="108.62746"
       x="47.758255"
       id="tspan912"
       sodipodi:role="line"> DADOS</tspan></text>
  <text
     transform="scale(1.0529641,0.94969998)"
     id="text940"
     y="111.18475"
     x="-28.013182"
     style="font-style:normal;font-weight:normal;font-size:40.89px;line-height:1.25;font-family:sans-serif;fill:#0077c2;fill-opacity:0.992157;stroke:none;stroke-width:1.02225"
     xml:space="preserve"><tspan
       style="font-style:normal;font-variant:normal;font-weight:normal;font-stretch:normal;font-family:'Andale Mono';-inkscape-font-specification:'Andale Mono';fill:#0077c2;fill-opacity:0.992157;stroke-width:1.02225"
       y="111.18475"
       x="-28.013182"
       id="tspan938"
       sodipodi:role="line">PRÓ</tspan></text>
  <text
     transform="scale(1.2153846,0.82278481)"
     id="text944"
     y="127.76641"
     x="39.313656"
     style="font-style:normal;font-weight:normal;font-size:48.6154px;line-height:1.25;font-family:sans-serif;fill:#0077c2;fill-opacity:0.992157;stroke:none;stroke-width:1.21538"
     xml:space="preserve"><tspan
       style="fill:#0077c2;fill-opacity:0.992157;stroke-width:1.21538"
       y="127.76641"
       x="39.313656"
       id="tspan942"
       sodipodi:role="line">-</tspan></text>
  <text
     transform="scale(1.0746957,0.93049598)"
     id="text948"
     y="135.24913"
     x="-25.395689"
     style="font-style:normal;font-weight:normal;font-size:8.97939px;line-height:1.25;font-family:sans-serif;fill:#000000;fill-opacity:1;stroke:none;stroke-width:0.224484"
     xml:space="preserve"><tspan
       style="stroke-width:0.224484"
       y="135.24913"
       x="-25.395689"
       id="tspan946"
       sodipodi:role="line">PESQUISA E ANÁLISE DE MERCADO</tspan></text>
  <path
     inkscape:export-ydpi="96"
     inkscape:export-xdpi="96"
     style="opacity:1;fill:none;stroke:#000000;stroke-width:3.3219;stroke-linecap:butt;stroke-linejoin:miter;stroke-miterlimit:4;stroke-dasharray:none;stroke-opacity:0.994012"
     d="m -1158.7007,-59.84924 h 874.13106 c 37.64199,-106.4922 37.64199,-108.7107 37.64199,-108.7107 l 39.73327,141.9895"
     id="path887-6"
     inkscape:connector-curvature="0" />
  <path
     inkscape:export-ydpi="96"
     inkscape:export-xdpi="96"
     style="opacity:1;fill:none;stroke:#000000;stroke-width:3.3219;stroke-linecap:butt;stroke-linejoin:miter;stroke-miterlimit:4;stroke-dasharray:none;stroke-opacity:0.994012"
     d="m -207.19438,-26.57044 77.37526,-133.5424 66.91909,85.5505 92.0138,-169.0145"
     id="path889-5"
     inkscape:connector-curvature="0" />
  <path
     inkscape:connector-curvature="0"
     inkscape:export-ydpi="96"
     inkscape:export-xdpi="96"
     d="m -223.19334,-167.10824 a 25.179762,25.473038 0 0 1 -25.17977,25.4729 25.179762,25.473038 0 0 1 -25.17977,-25.4729 25.179762,25.473038 0 0 1 25.17977,-25.4732 25.179762,25.473038 0 0 1 25.17977,25.4732"
     style="opacity:1;fill:none;fill-opacity:0.707547;stroke:#000000;stroke-width:3.3219;stroke-miterlimit:4;stroke-dasharray:none;stroke-opacity:0.994012;stop-color:#000000"
     id="path893-0" />
  <path
     inkscape:connector-curvature="0"
     inkscape:export-ydpi="96"
     inkscape:export-xdpi="96"
     d="m 44.25908,-265.45184 -2.44951,15.2022 -2.44952,15.2021 -12.01863,-8.1685 -12.0186,-8.1682 14.46813,-7.0339 z"
     inkscape:transform-center-y="0.37812984"
     inkscape:transform-center-x="3.1896785"
     style="opacity:1;fill:#000000;fill-opacity:0.901961;stroke:#000000;stroke-width:2.9633;stroke-opacity:0.994012;stop-color:#000000"
     id="path891-3" />
  <path
     inkscape:connector-curvature="0"
     inkscape:export-ydpi="96"
     inkscape:export-xdpi="96"
     d="m -38.54193,-79.56284 a 25.179762,25.473038 0 0 1 -25.17977,25.4731 25.179762,25.473038 0 0 1 -25.17977,-25.4731 25.179762,25.473038 0 0 1 25.17977,-25.4729 25.179762,25.473038 0 0 1 25.17977,25.4729"
     style="opacity:1;fill:none;fill-opacity:0.707547;stroke:#000000;stroke-width:3.3219;stroke-miterlimit:4;stroke-dasharray:none;stroke-opacity:0.994012;stop-color:#000000"
     id="path893-9-4" />
  <path
     inkscape:connector-curvature="0"
     inkscape:export-ydpi="96"
     inkscape:export-xdpi="96"
     d="m -53.92964,-79.56284 a 9.4424096,9.072589 0 0 1 -9.44241,9.0726 9.4424096,9.072589 0 0 1 -9.44241,-9.0726 9.4424096,9.072589 0 0 1 9.44241,-9.0726 9.4424096,9.072589 0 0 1 9.44241,9.0726"
     style="opacity:1;fill:#274caa;fill-opacity:1;stroke:none;stroke-width:6.881;stroke-opacity:0.670659;stop-color:#000000"
     id="path910-8" />
  <text
     transform="matrix(1.7923808,0,0,1.9896974,-517.70041,2445.8502)"
     id="text914-5-3"
     y="-1270.55"
     x="-188.43111"
     style="font-style:normal;font-weight:normal;font-size:89.0211px;line-height:1.25;font-family:sans-serif;opacity:0.315789;fill:#a9a9a9;fill-opacity:1;stroke:none;stroke-width:3.77953;stroke-miterlimit:4;stroke-dasharray:none;stroke-opacity:1;filter:url(#filter1284)"
     xml:space="preserve"
     inkscape:export-xdpi="96"
     inkscape:export-ydpi="96"><tspan
       style="font-style:normal;font-variant:normal;font-weight:normal;font-stretch:normal;font-family:'Andale Mono';-inkscape-font-specification:'Andale Mono';fill:#a9a9a9;fill-opacity:1;stroke:none;stroke-width:3.77953;stroke-miterlimit:4;stroke-dasharray:none;stroke-opacity:1"
       y="-1270.55"
       x="-188.43111"
       id="tspan912-5-7"
       sodipodi:role="line"> DADOS</tspan></text>
  <text
     inkscape:export-ydpi="96"
     inkscape:export-xdpi="96"
     xml:space="preserve"
     style="font-style:normal;font-weight:normal;font-size:168.113px;line-height:1.25;font-family:sans-serif;fill:#274caa;fill-opacity:1;stroke:#274caa;stroke-width:7.13751;stroke-miterlimit:4;stroke-dasharray:none;stroke-opacity:1"
     x="-913.86176"
     y="-74.381447"
     id="text914-5"
     transform="scale(0.94912112,1.0536063)"><tspan
       sodipodi:role="line"
       id="tspan912-5"
       x="-913.86176"
       y="-74.381447"
       style="font-style:normal;font-variant:normal;font-weight:normal;font-stretch:normal;font-family:'Andale Mono';-inkscape-font-specification:'Andale Mono';fill:#274caa;fill-opacity:1;stroke:#274caa;stroke-width:7.13751;stroke-miterlimit:4;stroke-dasharray:none;stroke-opacity:1"> DADOS</tspan></text>
  <text
     transform="matrix(1.8571994,0,0,1.9202544,-517.70041,2445.8502)"
     id="text940-5-6"
     y="-1317.3198"
     x="-337.84622"
     style="font-style:normal;font-weight:normal;font-size:86.074px;line-height:1.25;font-family:sans-serif;opacity:0.315789;fill:#a9a9a9;fill-opacity:1;stroke:none;stroke-width:3.77953;stroke-miterlimit:4;stroke-dasharray:none;stroke-opacity:1;filter:url(#filter1280)"
     xml:space="preserve"
     inkscape:export-xdpi="96"
     inkscape:export-ydpi="96"><tspan
       style="font-style:normal;font-variant:normal;font-weight:normal;font-stretch:normal;font-family:'Andale Mono';-inkscape-font-specification:'Andale Mono';fill:#a9a9a9;fill-opacity:1;stroke:none;stroke-width:3.77953;stroke-miterlimit:4;stroke-dasharray:none;stroke-opacity:1"
       y="-1317.3198"
       x="-337.84622"
       id="tspan938-4-8"
       sodipodi:role="line">PRÓ</tspan></text>
  <text
     inkscape:export-ydpi="96"
     inkscape:export-xdpi="96"
     xml:space="preserve"
     style="font-style:normal;font-weight:normal;font-size:162.548px;line-height:1.25;font-family:sans-serif;fill:#274caa;fill-opacity:1;stroke:#274caa;stroke-width:7.13751;stroke-miterlimit:4;stroke-dasharray:none;stroke-opacity:1"
     x="-1176.5511"
     y="-78.624092"
     id="text940-5"
     transform="scale(0.98344459,1.0168341)"><tspan
       sodipodi:role="line"
       id="tspan938-4"
       x="-1176.5511"
       y="-78.624092"
       style="font-style:normal;font-variant:normal;font-weight:normal;font-stretch:normal;font-family:'Andale Mono';-inkscape-font-specification:'Andale Mono';fill:#274caa;fill-opacity:1;stroke:#274caa;stroke-width:7.13751;stroke-miterlimit:4;stroke-dasharray:none;stroke-opacity:1">PRÓ</tspan></text>
  <text
     transform="matrix(2.1436736,0,0,1.6636374,-517.70041,2445.8502)"
     id="text944-2-6"
     y="-1524.0963"
     x="-158.85359"
     style="font-style:normal;font-weight:normal;font-size:102.336px;line-height:1.25;font-family:sans-serif;opacity:0.315789;fill:#a9a9a9;fill-opacity:1;stroke:none;stroke-width:3.77953;stroke-miterlimit:4;stroke-dasharray:none;stroke-opacity:1;filter:url(#filter1276)"
     xml:space="preserve"
     inkscape:export-xdpi="96"
     inkscape:export-ydpi="96"><tspan
       style="fill:#a9a9a9;fill-opacity:1;stroke:none;stroke-width:3.77953;stroke-miterlimit:4;stroke-dasharray:none;stroke-opacity:1"
       y="-1524.0963"
       x="-158.85359"
       id="tspan942-1-7"
       sodipodi:role="line">-</tspan></text>
  <text
     inkscape:export-ydpi="96"
     inkscape:export-xdpi="96"
     xml:space="preserve"
     style="font-style:normal;font-weight:normal;font-size:193.258px;line-height:1.25;font-family:sans-serif;fill:#274caa;fill-opacity:1;stroke:#274caa;stroke-width:7.13751;stroke-miterlimit:4;stroke-dasharray:none;stroke-opacity:1"
     x="-766.56122"
     y="-97.511208"
     id="text944-2"
     transform="scale(1.1351415,0.88094745)"><tspan
       sodipodi:role="line"
       id="tspan942-1"
       x="-766.56122"
       y="-97.511208"
       style="fill:#274caa;fill-opacity:1;stroke:#274caa;stroke-width:7.13751;stroke-miterlimit:4;stroke-dasharray:none;stroke-opacity:1">-</tspan></text>
  <text
     inkscape:export-ydpi="96"
     inkscape:export-xdpi="96"
     xml:space="preserve"
     style="font-style:normal;font-weight:normal;font-size:38.5103px;line-height:1.25;font-family:sans-serif;fill:#000000;fill-opacity:1;stroke:#000000;stroke-width:0.962752;stroke-opacity:0.994012"
     x="-1124.24"
     y="-13.644011"
     id="text948-9"
     transform="scale(1.022098,0.97837975)"><tspan
       sodipodi:role="line"
       id="tspan946-2"
       x="-1124.24"
       y="-13.644011"
       style="fill:#000000;fill-opacity:1;stroke:#000000;stroke-width:0.962752;stroke-opacity:0.994012">PESQUISA E ANÁLISE DE MERCADO</tspan></text>
  <path
     inkscape:connector-curvature="0"
     id="path887-6-6"
     d="m -284.56964,-59.84924 h -874.13106 c -37.642,-106.4922 -37.642,-108.7107 -37.642,-108.7107 l -39.7333,141.9895"
     style="opacity:0;fill:none;stroke:#000000;stroke-width:3.61522px;stroke-linecap:butt;stroke-linejoin:miter;stroke-opacity:0.899329"
     inkscape:export-xdpi="96"
     inkscape:export-ydpi="96" />
  <path
     inkscape:connector-curvature="0"
     id="path889-5-47"
     d="m -1236.076,-26.57044 -77.3753,-133.5424 -66.9191,85.5505 -92.0138,-169.0145"
     style="opacity:0;fill:none;stroke:#000000;stroke-width:3.50603px;stroke-linecap:butt;stroke-linejoin:miter;stroke-opacity:0.899329"
     inkscape:export-xdpi="96"
     inkscape:export-ydpi="96" />
  <path
     inkscape:export-ydpi="96"
     inkscape:export-xdpi="96"
     inkscape:connector-curvature="0"
     id="path893-0-8"
     style="opacity:0;fill:none;fill-opacity:0.707547;stroke:#000000;stroke-width:4.67472;stroke-opacity:0.899329;stop-color:#000000"
     d="m -1220.077,-153.83734 a 25.179762,25.473038 0 0 0 25.1797,25.473 25.179762,25.473038 0 0 0 25.1798,-25.473 25.179762,25.473038 0 0 0 -25.1798,-25.4731 25.179762,25.473038 0 0 0 -25.1797,25.4731" />
  <path
     inkscape:export-ydpi="96"
     inkscape:export-xdpi="96"
     inkscape:connector-curvature="0"
     id="path891-3-4"
     style="opacity:0;fill:#000000;fill-opacity:0.901961;stroke:#000000;stroke-width:2.9633;stroke-opacity:0.899329;stop-color:#000000"
     inkscape:transform-center-x="-3.1896908"
     inkscape:transform-center-y="0.3781305"
     d="m -1487.5295,-265.45184 2.4495,15.2022 2.4495,15.2021 12.0187,-8.1685 12.0186,-8.1682 -14.4682,-7.0339 z" />
  <path
     inkscape:export-ydpi="96"
     inkscape:export-xdpi="96"
     inkscape:connector-curvature="0"
     id="path893-9-4-0"
     style="opacity:0;fill:none;fill-opacity:0.707547;stroke:#000000;stroke-width:4.67472;stroke-opacity:0.899329;stop-color:#000000"
     d="m -1404.7285,-79.56284 a 25.179762,25.473038 0 0 0 25.1798,25.4731 25.179762,25.473038 0 0 0 25.1797,-25.4731 25.179762,25.473038 0 0 0 -25.1797,-25.4729 25.179762,25.473038 0 0 0 -25.1798,25.4729" />
  <path
     inkscape:export-ydpi="96"
     inkscape:export-xdpi="96"
     inkscape:connector-curvature="0"
     id="path910-8-06"
     style="opacity:0;fill:#0077c3;fill-opacity:0.992157;stroke:none;stroke-width:6.881;stroke-opacity:1;stop-color:#000000"
     d="m -1389.3408,-79.56284 a 9.4424096,9.072589 0 0 0 9.4424,9.0726 9.4424096,9.072589 0 0 0 9.4424,-9.0726 9.4424096,9.072589 0 0 0 -9.4424,-9.0724 9.4424096,9.072589 0 0 0 -9.4424,9.0724" />
  <path
     inkscape:connector-curvature="0"
     id="path887-6-7"
     d="m -1334.0959,1038.8609 h 874.13112 c 37.642,-106.49215 37.642,-108.71066 37.642,-108.71066 l 39.7332,141.98946"
     style="opacity:1;fill:none;stroke:#fcfcfc;stroke-width:3.3219;stroke-linecap:butt;stroke-linejoin:miter;stroke-miterlimit:4;stroke-dasharray:none;stroke-opacity:0.994012"
     inkscape:export-xdpi="96"
     inkscape:export-ydpi="96" />
  <path
     inkscape:connector-curvature="0"
     id="path889-5-4"
     d="m -382.58958,1072.1397 77.3753,-133.54235 66.9191,85.55045 92.0138,-169.01446"
     style="opacity:1;fill:none;stroke:#fcfcfc;stroke-width:3.3219;stroke-linecap:butt;stroke-linejoin:miter;stroke-miterlimit:4;stroke-dasharray:none;stroke-opacity:0.994012"
     inkscape:export-xdpi="96"
     inkscape:export-ydpi="96" />
  <path
     id="path893-0-80"
     style="opacity:1;fill:none;fill-opacity:0.707547;stroke:#fcfcfc;stroke-width:3.3219;stroke-miterlimit:4;stroke-dasharray:none;stroke-opacity:0.994012;stop-color:#000000"
     d="m -398.58848,931.60195 a 25.179762,25.473038 0 0 1 -25.1798,25.4729 25.179762,25.473038 0 0 1 -25.1798,-25.4729 25.179762,25.473038 0 0 1 25.1798,-25.47321 25.179762,25.473038 0 0 1 25.1798,25.47321"
     inkscape:export-xdpi="96"
     inkscape:export-ydpi="96"
     inkscape:connector-curvature="0" />
  <path
     id="path891-3-40"
     style="opacity:1;fill:#ffffff;fill-opacity:0.90196109;stroke:#fcfcfc;stroke-width:2.9633;stroke-opacity:0.994012;stop-color:#000000"
     inkscape:transform-center-x="3.1896785"
     inkscape:transform-center-y="0.37812984"
     d="m -131.13611,833.25834 -2.4495,15.2022 -2.4495,15.2021 -12.01867,-8.1685 -12.0186,-8.1682 14.46817,-7.0339 z"
     inkscape:export-xdpi="96"
     inkscape:export-ydpi="96"
     inkscape:connector-curvature="0" />
  <path
     id="path893-9-4-5"
     style="opacity:1;fill:none;fill-opacity:0.707547;stroke:#fcfcfc;stroke-width:3.3219;stroke-miterlimit:4;stroke-dasharray:none;stroke-opacity:0.994012;stop-color:#000000"
     d="m -213.93708,1019.1473 a 25.179762,25.473038 0 0 1 -25.1798,25.4731 25.179762,25.473038 0 0 1 -25.1797,-25.4731 25.179762,25.473038 0 0 1 25.1797,-25.47285 25.179762,25.473038 0 0 1 25.1798,25.47285"
     inkscape:export-xdpi="96"
     inkscape:export-ydpi="96"
     inkscape:connector-curvature="0" />
  <path
     id="path910-8-7"
     style="opacity:1;fill:#6184db;fill-opacity:1;stroke:none;stroke-width:6.881;stroke-opacity:0.670659;stop-color:#000000"
     d="m -229.32478,1019.1473 a 9.4424096,9.072589 0 0 1 -9.4424,9.0726 9.4424096,9.072589 0 0 1 -9.4424,-9.0726 9.4424096,9.072589 0 0 1 9.4424,-9.0726 9.4424096,9.072589 0 0 1 9.4424,9.0726"
     inkscape:export-xdpi="96"
     inkscape:export-ydpi="96"
     inkscape:connector-curvature="0" />
  <text
     inkscape:export-ydpi="96"
     inkscape:export-xdpi="96"
     xml:space="preserve"
     style="font-style:normal;font-weight:normal;font-size:89.0211px;line-height:1.25;font-family:sans-serif;opacity:0.315789;fill:#a9a9a9;fill-opacity:1;stroke:none;stroke-width:3.77953;stroke-miterlimit:4;stroke-dasharray:none;stroke-opacity:1;filter:url(#filter1284-3)"
     x="-188.43111"
     y="-1270.55"
     id="text914-5-3-0"
     transform="matrix(1.7923808,0,0,1.9896974,-693.09558,3544.5604)"><tspan
       sodipodi:role="line"
       id="tspan912-5-7-0"
       x="-188.43111"
       y="-1270.55"
       style="font-style:normal;font-variant:normal;font-weight:normal;font-stretch:normal;font-family:'Andale Mono';-inkscape-font-specification:'Andale Mono';fill:#a9a9a9;fill-opacity:1;stroke:none;stroke-width:3.77953;stroke-miterlimit:4;stroke-dasharray:none;stroke-opacity:1"> DADOS</tspan></text>
  <text
     transform="scale(0.94912112,1.0536063)"
     id="text914-5-5"
     y="968.42761"
     x="-1098.6593"
     style="font-style:normal;font-weight:normal;font-size:168.11299999999999955px;line-height:1.25;font-family:sans-serif;fill:#6184db;fill-opacity:1;stroke:#6184db;stroke-width:7.13751;stroke-miterlimit:4;stroke-dasharray:none;stroke-opacity:1;"
     xml:space="preserve"
     inkscape:export-xdpi="96"
     inkscape:export-ydpi="96"><tspan
       style="font-style:normal;font-variant:normal;font-weight:normal;font-stretch:normal;font-family:'Andale Mono';-inkscape-font-specification:'Andale Mono';fill:#6184db;fill-opacity:1;stroke:#6184db;stroke-width:7.13751;stroke-miterlimit:4;stroke-dasharray:none;stroke-opacity:1;"
       y="968.42761"
       x="-1098.6593"
       id="tspan912-5-6"
       sodipodi:role="line"> DADOS</tspan></text>
  <text
     inkscape:export-ydpi="96"
     inkscape:export-xdpi="96"
     xml:space="preserve"
     style="font-style:normal;font-weight:normal;font-size:86.07399999999999807px;line-height:1.25;font-family:sans-serif;opacity:0.315789;fill:#6184db;fill-opacity:1;stroke:none;stroke-width:3.77953;stroke-miterlimit:4;stroke-dasharray:none;stroke-opacity:1;filter:url(#filter1280-1);"
     x="-337.84622"
     y="-1317.3198"
     id="text940-5-6-7"
     transform="matrix(1.8571994,0,0,1.9202544,-693.09558,3544.5604)"><tspan
       sodipodi:role="line"
       id="tspan938-4-8-8"
       x="-337.84622"
       y="-1317.3198"
       style="font-style:normal;font-variant:normal;font-weight:normal;font-stretch:normal;font-family:'Andale Mono';-inkscape-font-specification:'Andale Mono';fill:#6184db;fill-opacity:1;stroke:none;stroke-width:3.77953;stroke-miterlimit:4;stroke-dasharray:none;stroke-opacity:1;">PRÓ</tspan></text>
  <text
     transform="scale(0.98344459,1.0168341)"
     id="text940-5-0"
     y="1001.8965"
     x="-1354.899"
     style="font-style:normal;font-weight:normal;font-size:162.54800000000000182px;line-height:1.25;font-family:sans-serif;fill:#6184db;fill-opacity:1;stroke:#6184db;stroke-width:7.13751;stroke-miterlimit:4;stroke-dasharray:none;stroke-opacity:1;"
     xml:space="preserve"
     inkscape:export-xdpi="96"
     inkscape:export-ydpi="96"><tspan
       style="font-style:normal;font-variant:normal;font-weight:normal;font-stretch:normal;font-family:'Andale Mono';-inkscape-font-specification:'Andale Mono';fill:#6184db;fill-opacity:1;stroke:#6184db;stroke-width:7.13751;stroke-miterlimit:4;stroke-dasharray:none;stroke-opacity:1;"
       y="1001.8965"
       x="-1354.899"
       id="tspan938-4-6"
       sodipodi:role="line">PRÓ</tspan></text>
  <text
     inkscape:export-ydpi="96"
     inkscape:export-xdpi="96"
     xml:space="preserve"
     style="font-style:normal;font-weight:normal;font-size:102.33599999999999852px;line-height:1.25;font-family:sans-serif;opacity:0.315789;fill:#6184db;fill-opacity:1;stroke:none;stroke-width:3.77953;stroke-miterlimit:4;stroke-dasharray:none;stroke-opacity:1;filter:url(#filter1276-9);"
     x="-158.85359"
     y="-1524.0963"
     id="text944-2-6-5"
     transform="matrix(2.1436736,0,0,1.6636374,-693.09558,3544.5604)"><tspan
       sodipodi:role="line"
       id="tspan942-1-7-7"
       x="-158.85359"
       y="-1524.0963"
       style="fill:#6184db;fill-opacity:1;stroke:none;stroke-width:3.77953;stroke-miterlimit:4;stroke-dasharray:none;stroke-opacity:1;">-</tspan></text>
  <text
     transform="scale(1.1351415,0.88094745)"
     id="text944-2-3"
     y="1149.6803"
     x="-921.0752"
     style="font-style:normal;font-weight:normal;font-size:193.25800000000000978px;line-height:1.25;font-family:sans-serif;fill:#6184db;fill-opacity:1;stroke:#6184db;stroke-width:7.13751;stroke-miterlimit:4;stroke-dasharray:none;stroke-opacity:1;"
     xml:space="preserve"
     inkscape:export-xdpi="96"
     inkscape:export-ydpi="96"><tspan
       style="fill:#6184db;fill-opacity:1;stroke:#6184db;stroke-width:7.13751;stroke-miterlimit:4;stroke-dasharray:none;stroke-opacity:1;"
       y="1149.6803"
       x="-921.0752"
       id="tspan942-1-4"
       sodipodi:role="line">-</tspan></text>
  <path
     inkscape:export-ydpi="96"
     inkscape:export-xdpi="96"
     style="opacity:0;fill:none;stroke:#000000;stroke-width:3.61522px;stroke-linecap:butt;stroke-linejoin:miter;stroke-opacity:0.899329"
     d="m -459.96478,1038.8609 h -874.13112 c -37.642,-106.49215 -37.642,-108.71066 -37.642,-108.71066 l -39.7333,141.98946"
     id="path887-6-6-4"
     inkscape:connector-curvature="0" />
  <image
     sodipodi:absref="/Users/Estevam/Documents/GitHub/prodados/dist/assets/img/about/luz.png"
     xlink:href="about/luz.png"
     y="-1246.3011"
     x="-6419.2539"
     width="224.47016"
     height="220.96281"
     preserveAspectRatio="none"
     id="image1472"
     clip-path="url(#clipPath1492)"
     inkscape:export-filename="/Users/Estevam/Documents/GitHub/prodados/dist/assets/img/about/luz.png"
     inkscape:export-xdpi="96"
     inkscape:export-ydpi="96" />
  <image
     sodipodi:absref="/Users/Estevam/Documents/GitHub/prodados/dist/assets/img/about/meta.png"
     xlink:href="about/meta.png"
     y="-1532.2462"
     x="-6408.0562"
     width="192"
     height="189"
     preserveAspectRatio="none"
     id="image1486" />
</svg>
